<?xml version="1.0" encoding="UTF-8" standalone="no"?>
<svg xmlns="http://www.w3.org/2000/svg" version="1.1"
    xmlns:xlink="http://www.w3.org/1999/xlink"
    xmlns:svgjs="http://svgjs.dev/svgjs" width="308" height="304" viewBox="0 0 2000 2250">
    <g transform="matrix(1,0,0,1,0,0)">
        <svg viewBox="0 0 320 360" data-background-color="#ffffff" preserveAspectRatio="xMidYMid meet" height="2250" width="2000"
            xmlns="http://www.w3.org/2000/svg"
            xmlns:xlink="http://www.w3.org/1999/xlink">
            <g id="tight-bounds" transform="matrix(1,0,0,1,0,0)">
                <svg viewBox="0 0 320 360" height="360" width="320">
                    <g>
                        <svg></svg>
                    </g>
                    <g>
                        <svg viewBox="0 0 320 360" height="360" width="320">
                            <g>
                                <path d="M160 42.18c72.417 0 131.943 56.114 137.63 127.014h22.37c-1.137-17.82-5.308-34.882-12.133-51.185-7.962-18.957-19.716-36.398-34.502-50.805-14.787-14.787-31.848-26.161-50.806-34.503-20.095-8.341-40.948-12.891-62.559-12.891-21.611 0-42.464 4.171-62.559 12.512-18.957 7.962-36.398 19.716-50.806 34.503-14.787 14.787-26.161 31.848-34.502 50.805-6.825 16.303-10.995 33.744-12.133 51.185h22.37c5.687-70.521 65.213-126.635 137.63-126.635zM160 318.199c-72.417 0-131.943-56.114-137.63-127.014h-22.37c1.137 17.82 5.308 34.882 12.133 51.185 7.962 18.957 19.716 36.398 34.502 50.805 14.787 14.787 31.848 26.161 50.806 34.503 19.716 8.341 40.569 12.512 62.559 12.512 21.991 0 42.464-4.171 62.559-12.512 18.957-7.962 36.398-19.716 50.806-34.503 14.787-14.787 26.161-31.848 34.502-50.805 6.825-16.303 10.995-33.744 12.133-51.185h-22.37c-5.687 70.9-65.213 127.014-137.63 127.014z" fill="#ec4104" fill-rule="nonzero" stroke="none" stroke-width="1" stroke-linecap="butt" stroke-linejoin="miter" stroke-miterlimit="10" stroke-dasharray="" stroke-dashoffset="0" font-family="none" font-weight="none" font-size="none" text-anchor="none" style="mix-blend-mode: normal" data-fill-palette-color="tertiary"></path>
                            </g>
                            <g transform="matrix(1,0,0,1,115.78579743888241,90)">
                                <svg viewBox="0 0 88.42840512223516 180" height="180" width="88.42840512223516">
                                    <g>
                                        <svg viewBox="0 0 88.42840512223516 180" height="180" width="88.42840512223516">
                                            <g>
                                                <svg viewBox="0 0 88.42840512223516 180" height="180" width="88.42840512223516">
                                                    <g id="textblocktransform">
                                                        <svg viewBox="0 0 88.42840512223516 180" height="180" width="88.42840512223516" id="textblock">
                                                            <g>
                                                                <svg viewBox="0 0 88.42840512223516 180" height="180" width="88.42840512223516">
                                                                    <g transform="matrix(1,0,0,1,0,0)">
                                                                        <svg width="88.42840512223516" viewBox="1.9 -42.95 21.1 42.95" height="180" data-palette-color="#ec4104">
                                                                            <g class="wordmark-text-0" data-fill-palette-color="primary" id="text-0">
                                                                                <path d="M1.9 0L1.9-42.95 13.55-42.95Q18.25-42.95 20.38-40.65 22.5-38.35 22.5-33.15L22.5-33.15 22.5-31.25Q22.5-25.1 18.1-23.9L18.1-23.9Q20.8-23.2 21.9-20.65 23-18.1 23-13.9L23-13.9Q23-7.05 20.95-3.53 18.9 0 13.55 0L13.55 0 1.9 0ZM10.3-26.8L12.05-26.8Q13.15-26.8 13.55-27.63 13.95-28.45 13.95-29.95L13.95-29.95 13.95-34.25Q13.95-36.35 12.1-36.35L12.1-36.35 10.3-36.35 10.3-26.8ZM11.15-7.55Q14.5-7.55 14.5-10.75L14.5-10.75 14.5-16.1Q14.5-18.05 13.93-19.05 13.35-20.05 11.9-20.05L11.9-20.05 10.3-20.05 10.3-7.6 11.15-7.55Z" fill="#ec4104" data-fill-palette-color="primary"></path>
                                                                            </g>
                                                                        </svg>
                                                                    </g>
                                                                </svg>
                                                            </g>
                                                        </svg>
                                                    </g>
                                                </svg>
                                            </g>
                                        </svg>
                                    </g>
                                </svg>
                            </g>
                        </svg>
                    </g>
                    <defs></defs>
                </svg>
                <rect width="320" height="360" fill="none" stroke="none" visibility="hidden"></rect>
            </g>
        </svg>
    </g>
</svg>